<svg version="1.1" id="Layer_1" xmlns="http://www.w3.org/2000/svg" xmlns:xlink="http://www.w3.org/1999/xlink" x="0px" y="0px" viewBox="0 0 100 100" style="transform-origin: 50px 50px 0px;" xml:space="preserve"><g style="transform-origin: 50px 50px 0px;"><g style="transform-origin: 50px 50px 0px; transform: scale(1);"><g style="transform-origin: 50px 50px 0px;"><g><style type="text/css" class="ld ld-breath" style="transform-origin: 50px 50px 0px; animation-duration: 1s; animation-delay: -1s; animation-direction: normal;">.st0{fill:#000101;} .st1{fill:#1E1E1E;} .st2{fill:#FFFFFF;} .st3{fill:#1D1C1D;} .st4{fill:#FEFFFF;} .st5{fill:#030404;} .st6{fill:#0A0A09;}</style><g class="ld ld-breath" style="transform-origin: 50px 50px 0px; animation-duration: 1s; animation-delay: -0.928571s; animation-direction: normal;"><path class="st0" d="M61.123,89.935l24.05-5.21c0,0-8.675-58.71-8.75-59.1c-0.06-0.385-0.38-0.64-0.7-0.64 c-0.325,0-6.43-0.45-6.43-0.45s-4.25-4.25-4.8-4.7c-0.15-0.125-0.25-0.19-0.4-0.25l-3.05,70.35L61.123,89.935z" fill="#7563eb" style="fill: rgb(117, 99, 235);"></path></g><g style="transform-origin: 50px 50px 0px;"><g><g class="ld ld-breath" style="transform-origin: 50px 50px 0px; animation-duration: 1s; animation-delay: -0.857143s; animation-direction: normal;"><path class="st0" d="M62.858,19.52c-0.065,0-0.965,0.25-2.38,0.7c-1.41-4.11-3.92-7.9-8.36-7.9h-0.385 C50.448,10.7,48.898,10,47.548,10c-10.35,0-15.3,12.925-16.85,19.485c-3.98,1.22-6.875,2.125-7.2,2.25 c-2.25,0.71-2.31,0.775-2.57,2.9c-0.25,1.54-6.1,46.875-6.1,46.875l45.2,8.49l3.085-70.549 C63.047,19.454,62.917,19.52,62.858,19.52z M51.348,22.6v0.45c-2.51,0.775-5.275,1.61-7.975,2.45c1.55-5.92,4.44-8.81,6.95-9.9 C50.963,17.265,51.348,19.52,51.348,22.6z M47.233,12.8v-0.035c0.45,0,0.9,0.13,1.35,0.45c-3.28,1.55-6.88,5.465-8.36,13.31 c-2.185,0.71-4.31,1.35-6.3,1.93C35.658,22.5,39.838,12.8,47.233,12.8z M49.098,47.65l-0.065,0.035c0,0-2.7-1.415-5.915-1.415 c-4.825,0-5.015,3.025-5.015,3.8c0,4.11,10.8,5.72,10.8,15.43c0,7.65-4.8,12.54-11.35,12.54c-7.85,0-11.8-4.89-11.8-4.89l2.15-6.95 c0,0,4.15,3.55,7.6,3.55c2.25,0,3.25-1.81,3.25-3.1c0-5.4-8.85-5.65-8.85-14.53c-0.105-7.46,5.245-14.72,16.095-14.72 c4.19,0,6.25,1.2,6.25,1.2L49.098,47.65z M54.048,22.22v-0.835c0-2.507-0.32-4.566-0.898-6.235c-0.001,0-0.001,0-0.002,0v-0.005 c0.001,0.002,0.001,0.004,0.002,0.005c2.314,0.251,3.799,2.89,4.758,5.85C56.748,21.385,55.458,21.77,54.048,22.22z" fill="#7563eb" style="fill: rgb(117, 99, 235);"></path></g><g class="ld ld-breath" style="transform-origin: 50px 50px 0px; animation-duration: 1s; animation-delay: -0.785714s; animation-direction: normal;"><polygon class="st0" points="63.113,19.45 63.113,19.451 63.118,19.45 	" fill="#7563eb" style="fill: rgb(117, 99, 235);"></polygon></g></g></g><metadata xmlns:d="https://loading.io/stock/" class="ld ld-breath" style="transform-origin: 50px 50px 0px; animation-duration: 1s; animation-delay: -0.714286s; animation-direction: normal;">
<d:name class="ld ld-breath" style="transform-origin: 50px 50px 0px; animation-duration: 1s; animation-delay: -0.642857s; animation-direction: normal;">shopify</d:name>
<d:tags class="ld ld-breath" style="transform-origin: 50px 50px 0px; animation-duration: 1s; animation-delay: -0.571429s; animation-direction: normal;">shopify,brand wb</d:tags>
<d:license class="ld ld-breath" style="transform-origin: 50px 50px 0px; animation-duration: 1s; animation-delay: -0.5s; animation-direction: normal;">cc0</d:license>
<d:slug class="ld ld-breath" style="transform-origin: 50px 50px 0px; animation-duration: 1s; animation-delay: -0.428571s; animation-direction: normal;">hmq5vg</d:slug>
</metadata></g></g></g></g><style type="text/css" class="ld ld-breath" style="transform-origin: 50px 50px 0px; animation-duration: 1s; animation-delay: -0.357143s; animation-direction: normal;">@keyframes ld-breath {
  0% {
    -webkit-transform: scale(0.86);
    transform: scale(0.86);
  }
  50% {
    -webkit-transform: scale(1.06);
    transform: scale(1.06);
  }
  100% {
    -webkit-transform: scale(0.86);
    transform: scale(0.86);
  }
}
@-webkit-keyframes ld-breath {
  0% {
    -webkit-transform: scale(0.86);
    transform: scale(0.86);
  }
  50% {
    -webkit-transform: scale(1.06);
    transform: scale(1.06);
  }
  100% {
    -webkit-transform: scale(0.86);
    transform: scale(0.86);
  }
}
.ld.ld-breath {
  -webkit-animation: ld-breath 1s infinite;
  animation: ld-breath 1s infinite;
}
</style></svg>